<?xml version="1.0" encoding="UTF-8"?>
<svg width="190px" height="50px" viewBox="0 0 190 50" version="1.1" xmlns="http://www.w3.org/2000/svg" xmlns:xlink="http://www.w3.org/1999/xlink">
    <!-- Generator: Sketch 51.3 (57544) - http://www.bohemiancoding.com/sketch -->
    <title>NB Logo@1x</title>
    <desc>Created with Sketch.</desc>
    <defs>
        <polygon id="path-1" points="0 0.338192308 35.3158962 0.338192308 35.3158962 35.6536731 0 35.6536731"></polygon>
    </defs>
    <g id="NB-Logo" stroke="none" stroke-width="1" fill="none" fill-rule="evenodd">
        <g id="Group-3" transform="translate(0.500000, 7.000000)">
            <path d="M0.434044471,18.1783406 C0.434044471,8.52203293 8.26196755,0.693417548 17.9189675,0.693417548 C27.5752752,0.693417548 35.4035445,8.52203293 35.4035445,18.1783406 C35.4035445,27.8346483 27.5752752,35.6632637 17.9189675,35.6632637 C8.26196755,35.6632637 0.434044471,27.8346483 0.434044471,18.1783406" id="Fill-1" fill="#FD3753"></path>
            <g id="Group-5" transform="translate(0.260968, 0.182391)">
                <mask id="mask-2" fill="white">
                    <use xlink:href="#path-1"></use>
                </mask>
                <g id="Clip-4"></g>
                <path d="M17.6578962,0.684173077 C8.11201154,0.684173077 0.34605,8.45048077 0.34605,17.9960192 C0.34605,27.5415577 8.11201154,35.3075192 17.6578962,35.3075192 C27.2034346,35.3075192 34.9697423,27.5415577 34.9697423,17.9960192 C34.9697423,8.45048077 27.2034346,0.684173077 17.6578962,0.684173077 M17.6578962,35.6536731 C7.92093462,35.6536731 -0.000103846154,27.7326346 -0.000103846154,17.9960192 C-0.000103846154,8.25940385 7.92093462,0.338019231 17.6578962,0.338019231 C27.3945115,0.338019231 35.3158962,8.25940385 35.3158962,17.9960192 C35.3158962,27.7326346 27.3945115,35.6536731 17.6578962,35.6536731" id="Fill-3" fill="#D31831" mask="url(#mask-2)"></path>
            </g>
            <path d="M15.6769983,25.8031752 C16.1872291,25.2662906 16.4423445,24.6037522 16.4423445,23.8162522 C16.4423445,23.4403291 16.3751906,23.0872522 16.2408829,22.7559829 C16.1062291,22.4247137 15.9182675,22.1294445 15.6769983,21.8698291 C15.4353829,21.610906 15.1581137,21.4045983 14.8448445,21.2526368 C14.5315752,21.1003291 14.186806,21.0238291 13.8108829,21.0238291 C13.471306,21.0238291 13.1400368,21.0961752 12.8177675,21.2387906 C12.4958445,21.3824445 12.2137291,21.583906 11.9721137,21.8435214 C11.7308445,22.1031368 11.5383829,22.4025599 11.3947291,22.7424829 C11.2521137,23.0827522 11.1804599,23.4403291 11.1804599,23.8162522 C11.1804599,24.1921752 11.2472675,24.5504445 11.3815752,24.8903675 C11.5158829,25.2306368 11.7034983,25.525906 11.9454599,25.7761752 C12.1870752,26.0267906 12.4646906,26.2285983 12.7776137,26.3798675 C13.0908829,26.5325214 13.4349599,26.6083291 13.8108829,26.6083291 C14.5450752,26.6083291 15.1667675,26.3400599 15.6769983,25.8031752 Z M12.2538829,27.3871752 C11.7706522,27.1905599 11.3459214,26.9174445 10.9789983,26.5678291 C10.6120752,26.218906 10.325806,25.8080214 10.1194983,25.3334445 C9.91422909,24.8592137 9.81107524,24.3531368 9.81107524,23.8162522 C9.81107524,23.2793675 9.91422909,22.7784829 10.1194983,22.3132522 C10.325806,21.8473291 10.6120752,21.4402522 10.9789983,21.0916752 C11.3459214,20.7427522 11.7706522,20.4696368 12.2538829,20.2726752 C12.7374599,20.0760599 13.2566906,19.977406 13.8108829,19.977406 C14.3661137,19.977406 14.8849983,20.0760599 15.3678829,20.2726752 C15.8514599,20.4696368 16.2765368,20.7427522 16.6434599,21.0916752 C17.0107291,21.4402522 17.2969983,21.8473291 17.5022675,22.3132522 C17.7085752,22.7784829 17.8113829,23.2793675 17.8113829,23.8162522 C17.8113829,24.3531368 17.7085752,24.8592137 17.5022675,25.3334445 C17.2969983,25.8080214 17.0107291,26.218906 16.6434599,26.5678291 C16.2765368,26.9174445 15.8514599,27.1905599 15.3678829,27.3871752 C14.8849983,27.5841368 14.3661137,27.6820983 13.8108829,27.6820983 C13.2566906,27.6820983 12.7374599,27.5841368 12.2538829,27.3871752 Z M23.8382675,14.5275599 C24.1515368,14.3842522 24.428806,14.1827906 24.6704214,13.9231752 C24.9123829,13.6642522 25.1048445,13.3637906 25.2474599,13.0238675 C25.3911137,12.6846368 25.4627675,12.3260214 25.4627675,11.9500983 C25.4627675,11.5745214 25.3956137,11.2207522 25.2609599,10.8894829 C25.1269983,10.558906 24.9390368,10.2632906 24.6974214,10.0036752 C24.455806,9.74405986 24.1740368,9.53879062 23.8517675,9.38648293 C23.5298445,9.23452139 23.1895752,9.15802139 22.8316522,9.15802139 C22.4917291,9.15802139 22.1604599,9.22967524 21.8381906,9.37298293 C21.5162675,9.51629062 21.2299983,9.71325216 20.9790368,9.96317524 C20.7287675,10.2141368 20.531806,10.509406 20.3884983,10.8496752 C20.2451906,11.1895983 20.1735368,11.5568675 20.1735368,11.9500983 C20.1735368,12.3260214 20.2410368,12.6797906 20.3749983,13.0103675 C20.509306,13.3416368 20.6972675,13.6372522 20.9388829,13.8968675 C21.1801522,14.1564829 21.4622675,14.3617522 21.7848829,14.5140599 C22.1064599,14.6660214 22.4557291,14.7425214 22.8316522,14.7425214 C23.1895752,14.7425214 23.5256906,14.6708675 23.8382675,14.5275599 Z M25.2474599,27.5211368 L17.9190368,18.1784445 L10.4552675,9.0507137 L11.3947291,8.2452137 L18.6701906,17.560906 L26.1872675,26.6889829 L25.2474599,27.5211368 Z M21.2611522,15.4936752 C20.7692675,15.2967137 20.3438445,15.0242906 19.9855752,14.6750214 C19.6279983,14.3260983 19.3413829,13.9190214 19.1267675,13.4537906 C18.9121522,12.9882137 18.8044983,12.4869829 18.8044983,11.9500983 C18.8044983,11.4135599 18.9121522,10.9123291 19.1267675,10.4467522 C19.3413829,9.98152139 19.6279983,9.57444447 19.9855752,9.22482909 C20.3438445,8.87625216 20.7692675,8.59898293 21.2611522,8.39267524 C21.7537291,8.18705986 22.2767675,8.08425216 22.8316522,8.08425216 C23.3861906,8.08425216 23.9054214,8.18705986 24.3886522,8.39267524 C24.8715368,8.59898293 25.297306,8.87625216 25.6642291,9.22482909 C26.0311522,9.57444447 26.3174214,9.98152139 26.5230368,10.4467522 C26.7289983,10.9123291 26.831806,11.4135599 26.831806,11.9500983 C26.831806,12.4869829 26.7289983,12.9882137 26.5230368,13.4537906 C26.3174214,13.9190214 26.0311522,14.3260983 25.6642291,14.6750214 C25.297306,15.0242906 24.8715368,15.2967137 24.3886522,15.4936752 C23.9054214,15.6909829 23.3861906,15.7889445 22.8316522,15.7889445 C22.2767675,15.7889445 21.7537291,15.6909829 21.2611522,15.4936752 Z" id="Fill-6" fill="#FFFFFF"></path>
            <polygon id="Fill-8" fill="#222222" points="47.6739022 15.4939522 47.6739022 27.7090291 43.9690175 27.7090291 43.9690175 8.64806755 46.8417483 8.64806755 56.7749791 21.1584137 56.7749791 8.67506755 60.4795175 8.67506755 60.4795175 27.7090291 57.4731714 27.7090291"></polygon>
            <path d="M67.0835445,18.1786868 C67.0835445,19.0018406 67.2046983,19.7986868 67.4459675,20.5678406 C67.6875829,21.3376868 68.0368522,22.0175329 68.4930829,22.6084175 C68.9496599,23.198956 69.5086983,23.6731868 70.1708906,24.0311099 C70.8327368,24.3890329 71.5845829,24.5679945 72.4260829,24.5679945 C73.2852368,24.5679945 74.0412368,24.3848791 74.6944291,24.0176099 C75.3476214,23.6510329 75.898006,23.162956 76.3455829,22.5547637 C76.7928137,21.9462252 77.1330829,21.2615329 77.3656983,20.5006868 C77.5983137,19.7401868 77.7149675,18.9661868 77.7149675,18.1786868 C77.7149675,17.3555329 77.5896599,16.5586868 77.3390445,15.7891868 C77.0880829,15.0200329 76.735006,14.3394945 76.2784291,13.748956 C75.8221983,13.1580714 75.2673137,12.6886868 74.6141214,12.3394175 C73.9605829,11.9904945 73.2222368,11.8156868 72.3990829,11.8156868 C71.5402752,11.8156868 70.7835829,11.9994945 70.1307368,12.3664175 C69.4771983,12.7333406 68.9223137,13.2165714 68.4660829,13.8157637 C68.0098522,14.4159945 67.6650829,15.0958406 67.4328137,15.8563406 C67.1998522,16.6171868 67.0835445,17.3911868 67.0835445,18.1786868 M72.3724291,27.8433022 C71.0300445,27.8433022 69.8036214,27.5708791 68.6941983,27.0246483 C67.5844291,26.4787637 66.6311214,25.7539175 65.8353137,24.8497637 C65.0388137,23.9463022 64.4257752,22.9126868 63.9961983,21.7489175 C63.5666214,20.5858406 63.352006,19.3961099 63.352006,18.1786868 C63.352006,16.907956 63.5801214,15.6908791 64.0363522,14.527456 C64.4929291,13.3643791 65.1281214,12.3352637 65.9426214,11.4401099 C66.7571214,10.5453022 67.7187368,9.83395601 68.828506,9.30572524 C69.9382752,8.77818678 71.146006,8.51372524 72.4530829,8.51372524 C73.7954675,8.51372524 75.0211983,8.79584062 76.1309675,9.35937909 C77.2403906,9.92291755 78.1888522,10.6612637 78.9763522,11.5744175 C79.7641983,12.4872252 80.3727368,13.5253406 80.8023137,14.6884175 C81.2318906,15.8518406 81.446506,17.0332637 81.446506,18.2319945 C81.446506,19.5030714 81.2183906,20.7156483 80.7621599,21.8700714 C80.3055829,23.0244945 79.6745445,24.0442637 78.8693906,24.9304175 C78.0638906,25.8162252 77.1060829,26.5234175 75.9966599,27.0513022 C74.8868906,27.5795329 73.6788137,27.8433022 72.3724291,27.8433022" id="Fill-10" fill="#222222"></path>
            <path d="M96.8024099,22.3666637 C96.8024099,21.9370868 96.7259099,21.5210099 96.5742945,21.1184329 C96.4219868,20.7155099 96.2160252,20.3624329 95.956756,20.0578175 C95.6971406,19.7535483 95.3883714,19.5119329 95.0307945,19.3329714 C94.6725252,19.154356 94.2789483,19.064356 93.8493714,19.064356 L87.0304868,19.064356 L87.0304868,25.6149714 L93.6614099,25.6149714 C94.1086406,25.6149714 94.5205637,25.5256637 94.8961406,25.346356 C95.2720637,25.1680868 95.6029868,24.9302791 95.8896022,24.635356 C96.1755252,24.3397406 96.3998329,23.9953175 96.5607945,23.6013945 C96.7221022,23.2081637 96.8024099,22.7958945 96.8024099,22.3666637 Z M87.0304868,10.7421252 L87.0304868,17.1047791 L93.0975252,17.1047791 C93.5271022,17.1047791 93.9206791,17.0199714 94.2789483,16.8496637 C94.6365252,16.6797022 94.9456406,16.4515868 95.205256,16.1649714 C95.4645252,15.8790483 95.6701406,15.5432791 95.8224483,15.158356 C95.9744099,14.7734329 96.0505637,14.366356 96.0505637,13.9364329 C96.0505637,13.4895483 95.9789099,13.0689714 95.8359483,12.6750483 C95.6926406,12.2814714 95.5001791,11.9412022 95.2589099,11.6549329 C95.0172945,11.3690099 94.7216791,11.1447022 94.372756,10.9833945 C94.0238329,10.8224329 93.6520637,10.7421252 93.2588329,10.7421252 L87.0304868,10.7421252 Z M99.2455637,22.7958945 C99.2455637,23.5300868 99.097756,24.2016252 98.8024868,24.8098175 C98.5072175,25.4180099 98.1046406,25.9368945 97.5944099,26.3668175 C97.0841791,26.7963945 96.4936406,27.1276637 95.8224483,27.3602791 C95.151256,27.5928945 94.4305637,27.7092022 93.6614099,27.7092022 L84.6139868,27.7092022 L84.6139868,8.64789447 L94.0909868,8.64789447 C94.7528329,8.64789447 95.3530637,8.79120216 95.8896022,9.07747139 C96.4264868,9.36408678 96.8827175,9.73550986 97.2586406,10.1917406 C97.6345637,10.6479714 97.9253329,11.1672022 98.1312945,11.7487406 C98.3369099,12.3306252 98.4400637,12.9166637 98.4400637,13.5072022 C98.4400637,14.4560099 98.2026022,15.3328175 97.7287175,16.1383175 C97.2544868,16.9434714 96.5787945,17.543356 95.7016406,17.9369329 C96.7934099,18.2592022 97.6570637,18.8545868 98.2926022,19.7220483 C98.9277945,20.5905483 99.2455637,21.6148175 99.2455637,22.7958945 Z" id="Fill-12" fill="#424242"></path>
            <path d="M105.071229,18.7154675 L110.843344,18.7154675 C111.343883,18.7154675 111.796306,18.6078137 112.198883,18.3931983 C112.601806,18.1785829 112.946229,17.8878137 113.232498,17.5208906 C113.518421,17.1539675 113.742729,16.7288906 113.904037,16.2453137 C114.064652,15.7624291 114.145306,15.2611983 114.145306,14.7419675 C114.145306,14.2054291 114.051152,13.6996983 113.863191,13.2254675 C113.675229,12.7512368 113.424614,12.3306599 113.112037,11.9633906 C112.798421,11.5971599 112.431498,11.3101983 112.011268,11.1045829 C111.590344,10.8989675 111.147268,10.7958137 110.682037,10.7958137 L105.071229,10.7958137 L105.071229,18.7154675 Z M102.655075,27.7088906 L102.655075,8.64792909 L110.816344,8.64792909 C111.657152,8.64792909 112.431498,8.82239062 113.138691,9.17165986 C113.845537,9.52058293 114.454075,9.98615986 114.964306,10.5673522 C115.474191,11.1495829 115.872268,11.8024291 116.158883,12.5272752 C116.444806,13.2521214 116.588114,13.9904675 116.588114,14.7419675 C116.588114,15.404506 116.494306,16.0441983 116.306344,16.6613906 C116.118729,17.2792752 115.850114,17.8386599 115.501191,18.3395445 C115.151921,18.8407752 114.731344,19.2706983 114.239114,19.6282752 C113.746537,19.9865445 113.196498,20.2458137 112.588306,20.4067752 L117.205998,27.7088906 L114.467575,27.7088906 L110.118498,20.863006 L105.071229,20.863006 L105.071229,27.7088906 L102.655075,27.7088906 Z" id="Fill-14" fill="#424242"></path>
            <path d="M121.742379,18.1786868 C121.742379,19.1451483 121.898841,20.080456 122.21211,20.9839175 C122.525379,21.8880714 122.96811,22.6887252 123.540994,23.3869175 C124.113879,24.0847637 124.803071,24.6396483 125.608571,25.0512252 C126.413725,25.4631483 127.308533,25.6687637 128.292994,25.6687637 C129.31311,25.6687637 130.226264,25.4496483 131.031418,25.0107252 C131.836918,24.5728406 132.52161,23.999956 133.085494,23.2927637 C133.648687,22.5859175 134.07861,21.7852637 134.373879,20.8901099 C134.669148,19.9953022 134.816956,19.0914945 134.816956,18.1786868 C134.816956,17.2118791 134.659802,16.2772637 134.346879,15.3731099 C134.03361,14.4693022 133.586033,13.6728022 133.004494,12.9836099 C132.42261,12.2951099 131.733418,11.7443791 130.937264,11.3328022 C130.14111,10.9212252 129.259802,10.7149175 128.292994,10.7149175 C127.273225,10.7149175 126.360071,10.9302252 125.554918,11.359456 C124.749418,11.7890329 124.064725,12.3529175 123.500841,13.0511099 C122.937302,13.748956 122.502879,14.545456 122.198956,15.4402637 C121.894341,16.3354175 121.742379,17.2482252 121.742379,18.1786868 M128.266341,27.8433022 C126.923956,27.8433022 125.702379,27.5708791 124.60161,27.0246483 C123.500841,26.4787637 122.556879,25.7539175 121.769379,24.8497637 C120.981533,23.9463022 120.373341,22.9126868 119.943764,21.7489175 C119.514187,20.5858406 119.299225,19.3961099 119.299225,18.1786868 C119.299225,16.907956 119.527687,15.6908791 119.984264,14.527456 C120.440494,13.3643791 121.071533,12.3352637 121.877033,11.4401099 C122.682187,10.5453022 123.635148,9.83395601 124.735918,9.30572524 C125.836687,8.77818678 127.031264,8.51372524 128.319994,8.51372524 C129.662379,8.51372524 130.879456,8.79584062 131.971225,9.35937909 C133.062648,9.92291755 134.00211,10.6612637 134.789956,11.5744175 C135.577456,12.4872252 136.185994,13.5204945 136.615571,14.6749175 C137.045148,15.8293406 137.259764,17.0062637 137.259764,18.2053406 C137.259764,19.4764175 137.031648,20.6934945 136.575418,21.8565714 C136.118841,23.0199945 135.492302,24.0442637 134.696148,24.9304175 C133.899302,25.8162252 132.951187,26.5234175 131.850071,27.0513022 C130.749648,27.5795329 129.554725,27.8433022 128.266341,27.8433022" id="Fill-16" fill="#424242"></path>
            <polygon id="Fill-18" fill="#424242" points="140.642241 27.7090637 140.642241 8.67510216 143.058394 8.67510216 143.058394 19.1985252 152.884318 8.64810216 155.488779 8.64810216 147.837048 17.0509868 155.91801 27.7090637 153.286894 27.7090637 146.360702 18.4470252 143.058394 21.8832945 143.058394 27.7090637"></polygon>
            <polygon id="Fill-20" fill="#424242" points="171.005402 25.5614906 171.005402 27.7090291 158.065133 27.7090291 158.065133 8.64806755 170.763787 8.64806755 170.763787 10.7959522 160.481633 10.7959522 160.481633 16.9706445 169.421402 16.9706445 169.421402 18.9838752 160.481633 18.9838752 160.481633 25.5614906"></polygon>
            <path d="M176.857583,18.7154675 L182.629698,18.7154675 C183.130237,18.7154675 183.58266,18.6078137 183.985237,18.3931983 C184.38816,18.1785829 184.732583,17.8878137 185.018852,17.5208906 C185.304775,17.1539675 185.529083,16.7288906 185.690391,16.2453137 C185.851006,15.7624291 185.93166,15.2611983 185.93166,14.7419675 C185.93166,14.2054291 185.837506,13.6996983 185.649544,13.2254675 C185.461583,12.7512368 185.210968,12.3306599 184.898391,11.9633906 C184.584775,11.5971599 184.217852,11.3101983 183.797621,11.1045829 C183.376698,10.8989675 182.933621,10.7958137 182.468391,10.7958137 L176.857583,10.7958137 L176.857583,18.7154675 Z M174.441429,27.7088906 L174.441429,8.64792909 L182.602698,8.64792909 C183.443506,8.64792909 184.217852,8.82239062 184.925044,9.17165986 C185.631891,9.52058293 186.240429,9.98615986 186.75066,10.5673522 C187.260544,11.1495829 187.658621,11.8024291 187.945237,12.5272752 C188.23116,13.2521214 188.374468,13.9904675 188.374468,14.7419675 C188.374468,15.404506 188.28066,16.0441983 188.092698,16.6613906 C187.905083,17.2792752 187.636468,17.8386599 187.287544,18.3395445 C186.938275,18.8407752 186.517698,19.2706983 186.025468,19.6282752 C185.532891,19.9865445 184.982852,20.2458137 184.37466,20.4067752 L188.992352,27.7088906 L186.253929,27.7088906 L181.904852,20.863006 L176.857583,20.863006 L176.857583,27.7088906 L174.441429,27.7088906 Z" id="Fill-22" fill="#424242"></path>
        </g>
    </g>
</svg>