<svg xmlns="http://www.w3.org/2000/svg" xmlns:xlink="http://www.w3.org/1999/xlink" width="19" height="18" viewBox="0 0 19 18">
    <defs>
        <path id="a" d="M0 .004h7.476v7.033H0z"/>
        <path id="c" d="M.041.062H4.43V12.21H.041z"/>
        <path id="e" d="M.07.062h2.927v4.889H.07z"/>
    </defs>
    <g fill="none" fill-rule="evenodd">
        <g transform="rotate(-18 24.014 4.044)">
            <mask id="b" fill="#fff">
                <use xlink:href="#a"/>
            </mask>
            <path fill="#FCB244" d="M7.476.005v7.011c-.124.007-.23.02-.337.02-1.206 0-2.413.004-3.619-.002C1.527 7.022-.01 5.466 0 3.474.009 1.567 1.597.012 3.547.006 4.73.002 5.911.005 7.093.005h.383z" mask="url(#b)"/>
        </g>
        <g transform="rotate(-18 11.936 -19.379)">
            <mask id="d" fill="#fff">
                <use xlink:href="#c"/>
            </mask>
            <path fill="#FCB244" d="M4.428 6.135v5.316c0 .275.016.557-.28.705-.274.138-.486-.015-.702-.166-1.052-.734-2.11-1.457-3.155-2.203a.627.627 0 0 1-.234-.436C.042 7.198.049 5.045.041 2.891c0-.22.067-.356.25-.481C1.371 1.673 2.435.913 3.521.187c.165-.11.47-.169.622-.086.152.083.27.371.273.57.02 1.822.012 3.643.012 5.464" mask="url(#d)"/>
        </g>
        <g transform="rotate(-18 45.841 -9.121)">
            <mask id="f" fill="#fff">
                <use xlink:href="#e"/>
            </mask>
            <path fill="#FCB244" d="M.094.062h2.873c.012.124.028.218.028.312.002 1.02.004 2.04 0 3.06C2.99 4.3 2.36 4.952 1.539 4.95.712 4.949.08 4.306.074 3.439.066 2.395.07 1.35.073.305c0-.083.014-.166.02-.243" mask="url(#f)"/>
        </g>
        <path fill="#FCB244" d="M15.71 8.862c.24.082.457.106.611.217.597.43 1.177.884 1.755 1.34.339.267.385.627.146.934-.24.31-.59.346-.935.085-.587-.444-1.185-.876-1.741-1.357-.154-.133-.254-.432-.232-.638.021-.192.237-.362.395-.58M16.719 6.933c-.336.11-.671.22-1.008.327-.375.119-.673-.017-.804-.36-.141-.37-.012-.691.357-.837.702-.278 1.407-.55 2.116-.81.361-.133.671.017.808.36.139.35 0 .699-.357.846-.371.153-.751.285-1.128.427l.016.047M15.923 1.349c-.074.245-.088.464-.195.616a50.61 50.61 0 0 1-1.314 1.758c-.239.31-.617.359-.904.142-.293-.222-.346-.584-.11-.91.428-.594.85-1.196 1.317-1.757.13-.155.42-.262.624-.243.189.018.36.234.582.394M12.586 5.543c.46-.21.85-.07 1.01.383.22.626.424 1.259.616 1.894.14.463-.075.796-.584.928l-1.042-3.205z"/>
    </g>
</svg>
