<svg height="496pt" viewBox="0 0 496 496" width="496pt" xmlns="http://www.w3.org/2000/svg"><path d="m464 56v-48c0-4.425781-3.574219-8-8-8h-32c-2.214844 0-4.214844.894531-5.664062 2.351562-29.441407 29.441407-68.582032 45.648438-110.214844 45.648438h-2.9375c-18.519532-5.289062-37.742188-8-57.183594-8-114.695312 0-208 93.304688-208 208 0 19.070312 2.71875 37.832031 7.792969 56h-7.792969c-4.425781 0-8 3.574219-8 8v48c-17.648438 0-32 14.351562-32 32s14.351562 32 32 32v48c0 4.425781 3.574219 8 8 8h32c2.214844 0 4.214844-.894531 5.664062-2.351562 18.785157-18.777344 41.527344-32.113282 66.335938-39.351563v9.703125h-16v16h16v24c0 4.425781 3.574219 8 8 8h32c4.425781 0 8-3.574219 8-8v-39.792969c18.167969 5.074219 36.929688 7.792969 56 7.792969 114.695312 0 208-93.304688 208-208 0-24.847656-4.328125-49.007812-12.832031-72h12.832031c4.425781 0 8-3.574219 8-8v-48c17.648438 0 32-14.351562 32-32s-14.351562-32-32-32zm-448 336c0-8.824219 7.175781-16 16-16v32c-8.824219 0-16-7.175781-16-16zm304-279.425781v-49.148438c35.335938-2.402343 68.59375-15.355469 96-37.539062v124.234375c-27.40625-22.191406-60.664062-35.136719-96-37.546875zm-32-48.574219h16v48h-16zm32 64.574219c5.390625.410156 10.726562 1.058593 16 2.011719v45.414062h-16zm-256 335.425781h-16v-144h16zm16-134.121094c27.40625 22.191406 60.664062 35.136719 96 37.535156v49.160157c-35.335938 2.402343-68.59375 15.355469-96 37.539062zm112 38.121094h16v48h-16zm-32 112v-45.414062c5.273438-.945313 10.609375-1.601563 16-2.011719v47.425781zm280-232c0 105.863281-86.136719 192-192 192-18.585938 0-36.847656-2.792969-54.472656-8h22.472656c4.425781 0 8-3.574219 8-8v-64c0-4.425781-3.574219-8-8-8h-28.121094c-41.640625 0-80.773437-16.207031-110.214844-45.648438-1.449218-1.457031-3.449218-2.351562-5.664062-2.351562h-7.550781c-5.511719-18.097656-8.449219-36.878906-8.449219-56 0-105.863281 86.136719-192 192-192 8.054688 0 16.0625.585938 24 1.574219v62.425781c0 4.425781 3.574219 8 8 8h24v56c0 4.425781 3.574219 8 8 8h32c4.425781 0 8-3.574219 8-8v-24h16v-16h-16v-9.695312c24.808594 7.238281 47.550781 20.566406 66.335938 39.351562 1.449218 1.449219 3.449218 2.34375 5.664062 2.34375h1.984375c9.261719 22.863281 14.015625 47.039062 14.015625 72zm8-88h-16v-144h16zm16-56v-32c8.824219 0 16 7.175781 16 16s-7.175781 16-16 16zm0 0"/><path d="m256 176.808594v-16.808594h-16v16.808594c-18.230469 3.71875-32 19.871094-32 39.191406 0 22.054688 17.945312 40 40 40 13.230469 0 24 10.769531 24 24s-10.769531 24-24 24-24-10.769531-24-24v-8h-16v8c0 19.3125 13.769531 35.472656 32 39.191406v16.808594h16v-16.808594c18.230469-3.71875 32-19.871094 32-39.191406 0-22.054688-17.945312-40-40-40-13.230469 0-24-10.769531-24-24s10.769531-24 24-24 24 10.769531 24 24v8h16v-8c0-19.3125-13.769531-35.472656-32-39.191406zm0 0"/></svg>