<svg id="Layer_1" enable-background="new 0 0 512 512" height="512" viewBox="0 0 512 512" width="512" xmlns="http://www.w3.org/2000/svg"><g><path d="m497 385.6h-81.4v-322.4c0-34.849-28.352-63.2-63.2-63.2h-289.2c-34.848 0-63.2 28.352-63.2 63.2s28.352 63.2 63.2 63.2h33.2v322.4c0 34.849 28.352 63.2 63.2 63.2h289.2c34.849 0 63.2-28.352 63.2-63.2v-48.2c0-8.284-6.716-15-15-15zm-400.6-289.2h-33.2c-18.306 0-33.2-14.893-33.2-33.2s14.894-33.2 33.2-33.2 33.2 14.894 33.2 33.2zm96.4 304.2v48.2c0 18.307-14.894 33.2-33.2 33.2-18.307 0-33.2-14.894-33.2-33.2v-385.616c0-12.163-3.455-23.534-9.437-33.184h235.437c18.307 0 33.2 14.894 33.2 33.2v322.4h-177.8c-8.284 0-15 6.716-15 15zm289.2 48.2c0 18.307-14.894 33.2-33.2 33.2h-235.436c5.981-9.65 9.436-21.021 9.436-33.184v-33.216h259.2z"/><path d="m304.2 257.067c-25.989 0-47.133 21.144-47.133 47.133s21.144 47.133 47.133 47.133 47.133-21.144 47.133-47.133-21.144-47.133-47.133-47.133zm0 64.266c-9.447 0-17.133-7.686-17.133-17.133s7.686-17.133 17.133-17.133 17.133 7.686 17.133 17.133-7.686 17.133-17.133 17.133z"/><path d="m336.333 192.8h-160.666c-8.284 0-15 6.716-15 15s6.716 15 15 15h160.667c8.284 0 15-6.716 15-15s-6.716-15-15.001-15z"/><path d="m207.8 289.2h-32.133c-8.284 0-15 6.716-15 15s6.716 15 15 15h32.133c8.284 0 15-6.716 15-15s-6.716-15-15-15z"/><path d="m336.333 128.533h-160.666c-8.284 0-15 6.716-15 15s6.716 15 15 15h160.667c8.284 0 15-6.716 15-15s-6.716-15-15.001-15z"/><path d="m336.333 64.267h-160.666c-8.284 0-15 6.716-15 15s6.716 15 15 15h160.667c8.284 0 15-6.716 15-15s-6.716-15-15.001-15z"/></g></svg>